<svg width="28" height="24" viewBox="0 0 28 24" fill="none" xmlns="http://www.w3.org/2000/svg">
<g clip-path="url(#clip0_696_760)">
<path d="M6.07812 4.5C4.83594 4.5 3.82812 5.50781 3.82812 6.75V12H8.32812V6.75C8.32812 5.50781 7.32031 4.5 6.07812 4.5ZM0.828125 6.75C0.828125 3.84844 3.17656 1.5 6.07812 1.5C8.97969 1.5 11.3281 3.84844 11.3281 6.75V17.25C11.3281 20.1516 8.97969 22.5 6.07812 22.5C3.17656 22.5 0.828125 20.1516 0.828125 17.25V6.75ZM26.8391 18.7219C26.5063 19.2984 25.7281 19.3359 25.2547 18.8672L16.4609 10.0734C15.9922 9.60469 16.025 8.82188 16.6063 8.48906C17.7031 7.86094 18.9734 7.5 20.3281 7.5C24.4719 7.5 27.8281 10.8562 27.8281 15C27.8281 16.3547 27.4672 17.625 26.8391 18.7219ZM24.05 21.5109C22.9531 22.1391 21.6828 22.5 20.3281 22.5C16.1844 22.5 12.8281 19.1438 12.8281 15C12.8281 13.6453 13.1891 12.375 13.8172 11.2781C14.15 10.7016 14.9281 10.6641 15.4016 11.1328L24.1953 19.9266C24.6641 20.3953 24.6312 21.1781 24.05 21.5109Z" fill="#384959"/>
</g>
<defs>
<clipPath id="clip0_696_760">
<path d="M0.828125 0H27.8281V24H0.828125V0Z" fill="white"/>
</clipPath>
</defs>
</svg>
