<svg width="24" height="24" viewBox="0 0 24 24" fill="none" xmlns="http://www.w3.org/2000/svg">
<path d="M0 0H24V24H0V0Z" stroke="#E5E7EB"/>
<path d="M0 3C0 2.17031 0.670312 1.5 1.5 1.5H22.5C23.3297 1.5 24 2.17031 24 3C24 3.82969 23.3297 4.5 22.5 4.5V19.5C23.3297 19.5 24 20.1703 24 21C24 21.8297 23.3297 22.5 22.5 22.5H1.5C0.670312 22.5 0 21.8297 0 21C0 20.1703 0.670312 19.5 1.5 19.5V4.5C0.670312 4.5 0 3.82969 0 3ZM12 4.5C11.5875 4.5 11.25 4.8375 11.25 5.25V6.75H7.5C7.0875 6.75 6.75 7.0875 6.75 7.5C6.75 7.9125 7.0875 8.25 7.5 8.25H11.25V10.5H6C5.5875 10.5 5.25 10.8375 5.25 11.25C5.25 11.6625 5.5875 12 6 12H11.25V15.3094L8.86406 14.3906C8.62031 14.2969 8.36719 14.25 8.10469 14.25H8.00625C6.9 14.25 6 15.15 6 16.2562C6 16.7062 6.15 17.1422 6.42656 17.4938L7.27969 18.5812C7.73438 19.1625 8.43281 19.5 9.16875 19.5H14.8312C15.5672 19.5 16.2656 19.1625 16.7203 18.5812L17.5734 17.4938C17.85 17.1422 18 16.7062 18 16.2562C18 15.15 17.1 14.25 15.9938 14.25H15.8906C15.6328 14.25 15.375 14.2969 15.1312 14.3906L12.75 15.3094V12H18C18.4125 12 18.75 11.6625 18.75 11.25C18.75 10.8375 18.4125 10.5 18 10.5H12.75V8.25H16.5C16.9125 8.25 17.25 7.9125 17.25 7.5C17.25 7.0875 16.9125 6.75 16.5 6.75H12.75V5.25C12.75 4.8375 12.4125 4.5 12 4.5ZM9.75 16.5C9.94891 16.5 10.1397 16.579 10.2803 16.7197C10.421 16.8603 10.5 17.0511 10.5 17.25C10.5 17.4489 10.421 17.6397 10.2803 17.7803C10.1397 17.921 9.94891 18 9.75 18C9.55109 18 9.36032 17.921 9.21967 17.7803C9.07902 17.6397 9 17.4489 9 17.25C9 17.0511 9.07902 16.8603 9.21967 16.7197C9.36032 16.579 9.55109 16.5 9.75 16.5ZM13.5 17.25C13.5 17.0511 13.579 16.8603 13.7197 16.7197C13.8603 16.579 14.0511 16.5 14.25 16.5C14.4489 16.5 14.6397 16.579 14.7803 16.7197C14.921 16.8603 15 17.0511 15 17.25C15 17.4489 14.921 17.6397 14.7803 17.7803C14.6397 17.921 14.4489 18 14.25 18C14.0511 18 13.8603 17.921 13.7197 17.7803C13.579 17.6397 13.5 17.4489 13.5 17.25Z" fill="white"/>
</svg>
