<svg width="31" height="24" viewBox="0 0 31 24" fill="none" xmlns="http://www.w3.org/2000/svg">
<g clip-path="url(#clip0_696_768)">
<path d="M9.98438 2.25C9.98438 1.00781 10.9922 0 12.2344 0H19.7344C20.9766 0 21.9844 1.00781 21.9844 2.25V24H18.2344V20.25C18.2344 19.0078 17.2266 18 15.9844 18C14.7422 18 13.7344 19.0078 13.7344 20.25V24H9.98438V2.25ZM3.23438 4.5H8.48438V24H3.23438C1.99219 24 0.984375 22.9922 0.984375 21.75V15H4.73438C5.14688 15 5.48438 14.6625 5.48438 14.25C5.48438 13.8375 5.14688 13.5 4.73438 13.5H0.984375V10.5H4.73438C5.14688 10.5 5.48438 10.1625 5.48438 9.75C5.48438 9.3375 5.14688 9 4.73438 9H0.984375V6.75C0.984375 5.50781 1.99219 4.5 3.23438 4.5ZM28.7344 4.5C29.9766 4.5 30.9844 5.50781 30.9844 6.75V9H27.2344C26.8219 9 26.4844 9.3375 26.4844 9.75C26.4844 10.1625 26.8219 10.5 27.2344 10.5H30.9844V13.5H27.2344C26.8219 13.5 26.4844 13.8375 26.4844 14.25C26.4844 14.6625 26.8219 15 27.2344 15H30.9844V21.75C30.9844 22.9922 29.9766 24 28.7344 24H23.4844V4.5H28.7344ZM15.6094 3C15.1969 3 14.8594 3.3375 14.8594 3.75V4.875H13.7344C13.3219 4.875 12.9844 5.2125 12.9844 5.625V6.375C12.9844 6.7875 13.3219 7.125 13.7344 7.125H14.8594V8.25C14.8594 8.6625 15.1969 9 15.6094 9H16.3594C16.7719 9 17.1094 8.6625 17.1094 8.25V7.125H18.2344C18.6469 7.125 18.9844 6.7875 18.9844 6.375V5.625C18.9844 5.2125 18.6469 4.875 18.2344 4.875H17.1094V3.75C17.1094 3.3375 16.7719 3 16.3594 3H15.6094Z" fill="#384959"/>
</g>
<defs>
<clipPath id="clip0_696_768">
<path d="M0.984375 0H30.9844V24H0.984375V0Z" fill="white"/>
</clipPath>
</defs>
</svg>
