<svg width="18" height="24" viewBox="0 0 18 24" fill="none" xmlns="http://www.w3.org/2000/svg">
<path d="M0 0H18V24H0V0Z" stroke="#E5E7EB"/>
<path d="M9.0001 0C9.59684 0 10.1691 0.237053 10.5911 0.65901C11.0131 1.08097 11.2501 1.65326 11.2501 2.25C11.2501 2.84674 11.0131 3.41903 10.5911 3.84099C10.1691 4.26295 9.59684 4.5 9.0001 4.5C8.40337 4.5 7.83107 4.26295 7.40911 3.84099C6.98716 3.41903 6.7501 2.84674 6.7501 2.25C6.7501 1.65326 6.98716 1.08097 7.40911 0.65901C7.83107 0.237053 8.40337 0 9.0001 0ZM5.6251 17.9531C4.97823 17.7844 4.5001 17.1984 4.5001 16.5V13.9172L4.28448 14.2734C3.85792 14.9813 2.93448 15.2109 2.22667 14.7844C1.51885 14.3578 1.28917 13.4344 1.71573 12.7266L4.44854 8.17969C5.15167 7.0125 6.3376 6.23437 7.66885 6.04219C7.86104 6.01406 8.05323 5.99531 8.25479 5.99531H8.30635H8.89229H9.0001C9.06573 5.99531 9.13135 6 9.19229 6.00937C10.8657 6.14531 12.2579 7.38281 12.572 9.05625L12.8579 10.5797C14.9345 10.9828 16.5001 12.8063 16.5001 15V16.5C16.5001 17.3297 15.8298 18 15.0001 18H14.2501H12.3751V22.5C12.3751 23.3297 11.7048 24 10.8751 24C10.0454 24 9.3751 23.3297 9.3751 22.5V18H9.0001H8.6251V22.5C8.6251 23.3297 7.95479 24 7.1251 24C6.29542 24 5.6251 23.3297 5.6251 22.5V17.9531Z" fill="white"/>
</svg>
