<svg width="22" height="24" viewBox="0 0 22 24" fill="none" xmlns="http://www.w3.org/2000/svg">
<g clip-path="url(#clip0_696_776)">
<path d="M10.6562 12C12.2475 12 13.7737 11.3679 14.8989 10.2426C16.0241 9.11742 16.6562 7.5913 16.6562 6C16.6562 4.4087 16.0241 2.88258 14.8989 1.75736C13.7737 0.632141 12.2475 0 10.6562 0C9.06495 0 7.53883 0.632141 6.41361 1.75736C5.28839 2.88258 4.65625 4.4087 4.65625 6C4.65625 7.5913 5.28839 9.11742 6.41361 10.2426C7.53883 11.3679 9.06495 12 10.6562 12ZM6.15625 14.5875C2.6875 15.6047 0.15625 18.8109 0.15625 22.6078C0.15625 23.3766 0.779688 24 1.54844 24H19.7641C20.5328 24 21.1562 23.3766 21.1562 22.6078C21.1562 18.8109 18.625 15.6047 15.1562 14.5875V16.9688C16.45 17.3016 17.4062 18.4781 17.4062 19.875V21.75C17.4062 22.1625 17.0688 22.5 16.6562 22.5H15.9062C15.4937 22.5 15.1562 22.1625 15.1562 21.75C15.1562 21.3375 15.4937 21 15.9062 21V19.875C15.9062 19.0453 15.2359 18.375 14.4062 18.375C13.5766 18.375 12.9062 19.0453 12.9062 19.875V21C13.3188 21 13.6562 21.3375 13.6562 21.75C13.6562 22.1625 13.3188 22.5 12.9062 22.5H12.1562C11.7437 22.5 11.4062 22.1625 11.4062 21.75V19.875C11.4062 18.4781 12.3625 17.3016 13.6562 16.9688V14.2922C13.375 14.2641 13.0891 14.25 12.7984 14.25H8.51406C8.22344 14.25 7.9375 14.2641 7.65625 14.2922V17.3578C8.73906 17.6812 9.53125 18.6844 9.53125 19.875C9.53125 21.3234 8.35469 22.5 6.90625 22.5C5.45781 22.5 4.28125 21.3234 4.28125 19.875C4.28125 18.6844 5.07344 17.6812 6.15625 17.3578V14.5875ZM6.90625 21C7.20462 21 7.49077 20.8815 7.70175 20.6705C7.91272 20.4595 8.03125 20.1734 8.03125 19.875C8.03125 19.5766 7.91272 19.2905 7.70175 19.0795C7.49077 18.8685 7.20462 18.75 6.90625 18.75C6.60788 18.75 6.32173 18.8685 6.11075 19.0795C5.89978 19.2905 5.78125 19.5766 5.78125 19.875C5.78125 20.1734 5.89978 20.4595 6.11075 20.6705C6.32173 20.8815 6.60788 21 6.90625 21Z" fill="#384959"/>
</g>
<defs>
<clipPath id="clip0_696_776">
<path d="M0.15625 0H21.1562V24H0.15625V0Z" fill="white"/>
</clipPath>
</defs>
</svg>
