<svg width="16" height="16" viewBox="0 0 16 16" fill="none" xmlns="http://www.w3.org/2000/svg">
<g clip-path="url(#clip0_696_659)">
<path d="M8.41876 0.090625C8.28751 0.03125 8.14689 0 8.00001 0C7.85314 0 7.71251 0.03125 7.58126 0.090625L1.69689 2.5875C1.00939 2.87813 0.496889 3.55625 0.500014 4.375C0.515639 7.475 1.79064 13.1469 7.17501 15.725C7.69689 15.975 8.30314 15.975 8.82501 15.725C14.2094 13.1469 15.4844 7.475 15.5 4.375C15.5031 3.55625 14.9906 2.87813 14.3031 2.5875L8.41876 0.090625ZM4.50001 6.91563C4.50001 5.85938 5.35626 5 6.41564 5C6.92189 5 7.40939 5.20312 7.76876 5.55937L8.00001 5.79063L8.23126 5.55937C8.59064 5.2 9.07814 5 9.58439 5C10.6406 5 11.5 5.85625 11.5 6.91563C11.5 7.42188 11.2969 7.90938 10.9406 8.26875L8.35626 10.8531C8.16251 11.0469 7.84376 11.0469 7.65001 10.8531L5.06564 8.26875C4.70626 7.90938 4.50626 7.42188 4.50626 6.91563H4.50001Z" fill="black"/>
</g>
<defs>
<clipPath id="clip0_696_659">
<path d="M0 0H16V16H0V0Z" fill="white"/>
</clipPath>
</defs>
</svg>
